<mxfile host="app.diagrams.net" modified="2024-07-12T07:46:57.768Z" agent="Mozilla/5.0 (Windows NT 10.0; Win64; x64) AppleWebKit/537.36 (KHTML, like Gecko) Chrome/126.0.0.0 Safari/537.36 Edg/126.0.0.0" etag="JJciuSOPHQWnM42YpG1_" version="24.6.5" type="device">
  <diagram name="Page-1" id="c4acf3e9-155e-7222-9cf6-157b1a14988f">
    <mxGraphModel dx="1426" dy="785" grid="1" gridSize="10" guides="1" tooltips="1" connect="1" arrows="1" fold="1" page="1" pageScale="1" pageWidth="850" pageHeight="1100" background="none" math="0" shadow="0">
      <root>
        <mxCell id="0" />
        <mxCell id="1" parent="0" />
        <mxCell id="5d2195bd80daf111-15" value="&lt;p style=&quot;margin: 4px 0px 0px; text-align: center; font-size: 14px;&quot;&gt;&lt;font style=&quot;font-size: 14px;&quot;&gt;&lt;i style=&quot;&quot;&gt;&amp;lt;&amp;lt;Class&amp;gt;&amp;gt;&lt;/i&gt;&lt;br&gt;&lt;b style=&quot;&quot;&gt;Taker&lt;/b&gt;&lt;br&gt;&lt;/font&gt;&lt;/p&gt;&lt;hr style=&quot;font-size: 14px;&quot; size=&quot;1&quot;&gt;&lt;p style=&quot;margin: 0px 0px 0px 4px; font-size: 14px;&quot;&gt;&lt;font style=&quot;font-size: 14px;&quot;&gt;- mementos: Stack&amp;lt;Memento&amp;gt;&lt;br&gt;&lt;/font&gt;&lt;/p&gt;&lt;hr style=&quot;font-size: 14px;&quot; size=&quot;1&quot;&gt;&lt;p style=&quot;margin: 0px 0px 0px 4px; font-size: 14px;&quot;&gt;&lt;font style=&quot;font-size: 14px;&quot;&gt;+&amp;nbsp;&lt;span style=&quot;background-color: initial;&quot;&gt;save(notepad: Notepad): void&lt;/span&gt;&lt;/font&gt;&lt;/p&gt;&lt;p style=&quot;margin: 0px 0px 0px 4px; font-size: 14px;&quot;&gt;&lt;font style=&quot;font-size: 14px;&quot;&gt;+ restore(notepad: Notepad): void&lt;/font&gt;&lt;/p&gt;" style="verticalAlign=top;align=left;overflow=fill;fontSize=12;fontFamily=Helvetica;html=1;rounded=0;shadow=0;comic=0;labelBackgroundColor=none;strokeWidth=1" parent="1" vertex="1">
          <mxGeometry x="610" y="220" width="220" height="140" as="geometry" />
        </mxCell>
        <mxCell id="5d2195bd80daf111-18" value="&lt;p style=&quot;margin: 4px 0px 0px; text-align: center; font-size: 14px;&quot;&gt;&lt;font style=&quot;font-size: 14px;&quot;&gt;&lt;i style=&quot;&quot;&gt;&amp;lt;&amp;lt;Class&amp;gt;&amp;gt;&lt;/i&gt;&lt;br&gt;&lt;b style=&quot;&quot;&gt;Main&lt;/b&gt;&lt;/font&gt;&lt;/p&gt;&lt;hr style=&quot;font-size: 14px;&quot; size=&quot;1&quot;&gt;&lt;p style=&quot;margin: 0px 0px 0px 4px; font-size: 14px;&quot;&gt;&lt;font style=&quot;font-size: 14px;&quot;&gt;+&amp;nbsp;&lt;span style=&quot;background-color: initial;&quot;&gt;main(args: String[]): void&lt;/span&gt;&lt;/font&gt;&lt;/p&gt;" style="verticalAlign=top;align=left;overflow=fill;fontSize=12;fontFamily=Helvetica;html=1;rounded=0;shadow=0;comic=0;labelBackgroundColor=none;strokeWidth=1" parent="1" vertex="1">
          <mxGeometry x="340" y="30" width="190" height="80" as="geometry" />
        </mxCell>
        <mxCell id="5d2195bd80daf111-19" value="&lt;p style=&quot;margin: 4px 0px 0px; text-align: center; font-size: 14px;&quot;&gt;&lt;font style=&quot;font-size: 14px;&quot;&gt;&lt;i style=&quot;&quot;&gt;&amp;lt;&amp;lt;Interface&amp;gt;&amp;gt;&lt;/i&gt;&lt;br&gt;&lt;b style=&quot;&quot;&gt;Interface&lt;/b&gt;&lt;/font&gt;&lt;/p&gt;&lt;hr style=&quot;font-size: 14px;&quot; size=&quot;1&quot;&gt;&lt;p style=&quot;margin: 0px 0px 0px 4px; font-size: 14px;&quot;&gt;&lt;font style=&quot;font-size: 14px;&quot;&gt;+ field1: Type&lt;br&gt;+ field2: Type&lt;/font&gt;&lt;/p&gt;&lt;hr style=&quot;font-size: 14px;&quot; size=&quot;1&quot;&gt;&lt;p style=&quot;margin: 0px 0px 0px 4px; font-size: 14px;&quot;&gt;&lt;font style=&quot;font-size: 14px;&quot;&gt;+ Notepad()&lt;/font&gt;&lt;/p&gt;&lt;p style=&quot;margin: 0px 0px 0px 4px; font-size: 14px;&quot;&gt;&lt;font style=&quot;font-size: 14px;&quot;&gt;+ Notepad(text: String)&lt;/font&gt;&lt;/p&gt;&lt;p style=&quot;margin: 0px 0px 0px 4px; font-size: 14px;&quot;&gt;&lt;font style=&quot;font-size: 14px;&quot;&gt;+ getText(): String&lt;/font&gt;&lt;/p&gt;&lt;p style=&quot;margin: 0px 0px 0px 4px; font-size: 14px;&quot;&gt;&lt;font style=&quot;font-size: 14px;&quot;&gt;+ setText(text: String): void&lt;/font&gt;&lt;/p&gt;&lt;p style=&quot;margin: 0px 0px 0px 4px; font-size: 14px;&quot;&gt;&lt;font style=&quot;font-size: 14px;&quot;&gt;+ save(): Memento&lt;/font&gt;&lt;/p&gt;&lt;p style=&quot;margin: 0px 0px 0px 4px; font-size: 14px;&quot;&gt;&lt;font style=&quot;font-size: 14px;&quot;&gt;+ restore(m: Memento): void&lt;/font&gt;&lt;br&gt;&lt;/p&gt;" style="verticalAlign=top;align=left;overflow=fill;fontSize=12;fontFamily=Helvetica;html=1;rounded=0;shadow=0;comic=0;labelBackgroundColor=none;strokeWidth=1" parent="1" vertex="1">
          <mxGeometry x="40" y="185" width="190" height="210" as="geometry" />
        </mxCell>
        <mxCell id="eN4Ghk2mZzIKYeAFtedm-1" value="&lt;p style=&quot;margin: 4px 0px 0px; text-align: center; font-size: 14px;&quot;&gt;&lt;font style=&quot;font-size: 14px;&quot;&gt;&lt;i style=&quot;&quot;&gt;&amp;lt;&amp;lt;Class&amp;gt;&amp;gt;&lt;/i&gt;&lt;br&gt;&lt;b style=&quot;&quot;&gt;Memento&lt;/b&gt;&lt;/font&gt;&lt;/p&gt;&lt;hr style=&quot;font-size: 14px;&quot; size=&quot;1&quot;&gt;&lt;p style=&quot;margin: 0px 0px 0px 4px; font-size: 14px;&quot;&gt;&lt;font style=&quot;font-size: 14px;&quot;&gt;- state: String&lt;br&gt;&lt;/font&gt;&lt;/p&gt;&lt;hr style=&quot;font-size: 14px;&quot; size=&quot;1&quot;&gt;&lt;p style=&quot;margin: 0px 0px 0px 4px; font-size: 14px;&quot;&gt;&lt;font style=&quot;font-size: 14px;&quot;&gt;+ Memento(state: String)&lt;/font&gt;&lt;/p&gt;&lt;p style=&quot;margin: 0px 0px 0px 4px; font-size: 14px;&quot;&gt;&lt;font style=&quot;font-size: 14px;&quot;&gt;+ getState(): String&lt;/font&gt;&lt;/p&gt;" style="verticalAlign=top;align=left;overflow=fill;fontSize=12;fontFamily=Helvetica;html=1;rounded=0;shadow=0;comic=0;labelBackgroundColor=none;strokeWidth=1" vertex="1" parent="1">
          <mxGeometry x="355" y="440" width="160" height="130" as="geometry" />
        </mxCell>
        <mxCell id="eN4Ghk2mZzIKYeAFtedm-2" value="Use" style="endArrow=open;endSize=12;dashed=1;html=1;rounded=0;exitX=0;exitY=0.5;exitDx=0;exitDy=0;entryX=1;entryY=0;entryDx=0;entryDy=0;" edge="1" parent="1" source="5d2195bd80daf111-18" target="5d2195bd80daf111-19">
          <mxGeometry width="160" relative="1" as="geometry">
            <mxPoint x="340" y="300" as="sourcePoint" />
            <mxPoint x="500" y="300" as="targetPoint" />
          </mxGeometry>
        </mxCell>
        <mxCell id="eN4Ghk2mZzIKYeAFtedm-3" value="Use" style="endArrow=open;endSize=12;dashed=1;html=1;rounded=0;exitX=1;exitY=0.5;exitDx=0;exitDy=0;entryX=0.25;entryY=0;entryDx=0;entryDy=0;" edge="1" parent="1" source="5d2195bd80daf111-18" target="5d2195bd80daf111-15">
          <mxGeometry width="160" relative="1" as="geometry">
            <mxPoint x="350" y="110" as="sourcePoint" />
            <mxPoint x="240" y="195" as="targetPoint" />
          </mxGeometry>
        </mxCell>
        <object label="" id="eN4Ghk2mZzIKYeAFtedm-4">
          <mxCell style="endArrow=classic;html=1;rounded=0;exitX=0.5;exitY=1;exitDx=0;exitDy=0;entryX=0;entryY=0.5;entryDx=0;entryDy=0;" edge="1" parent="1" source="5d2195bd80daf111-19" target="eN4Ghk2mZzIKYeAFtedm-1">
            <mxGeometry width="50" height="50" relative="1" as="geometry">
              <mxPoint x="400" y="330" as="sourcePoint" />
              <mxPoint x="450" y="280" as="targetPoint" />
            </mxGeometry>
          </mxCell>
        </object>
        <mxCell id="eN4Ghk2mZzIKYeAFtedm-5" value="" style="endArrow=classic;html=1;rounded=0;exitX=0.5;exitY=1;exitDx=0;exitDy=0;entryX=1;entryY=0.5;entryDx=0;entryDy=0;" edge="1" parent="1" source="5d2195bd80daf111-15" target="eN4Ghk2mZzIKYeAFtedm-1">
          <mxGeometry width="50" height="50" relative="1" as="geometry">
            <mxPoint x="145" y="405" as="sourcePoint" />
            <mxPoint x="365" y="515" as="targetPoint" />
          </mxGeometry>
        </mxCell>
        <mxCell id="eN4Ghk2mZzIKYeAFtedm-8" value="creates" style="text;strokeColor=none;fillColor=none;align=left;verticalAlign=middle;spacingLeft=4;spacingRight=4;overflow=hidden;points=[[0,0.5],[1,0.5]];portConstraint=eastwest;rotatable=0;whiteSpace=wrap;html=1;" vertex="1" parent="1">
          <mxGeometry x="240" y="430" width="80" height="30" as="geometry" />
        </mxCell>
        <mxCell id="eN4Ghk2mZzIKYeAFtedm-10" value="creates" style="text;strokeColor=none;fillColor=none;align=left;verticalAlign=middle;spacingLeft=4;spacingRight=4;overflow=hidden;points=[[0,0.5],[1,0.5]];portConstraint=eastwest;rotatable=0;whiteSpace=wrap;html=1;" vertex="1" parent="1">
          <mxGeometry x="570" y="410" width="80" height="30" as="geometry" />
        </mxCell>
      </root>
    </mxGraphModel>
  </diagram>
</mxfile>
